<mxfile host="app.diagrams.net" modified="2023-04-18T08:32:55.670Z" agent="Mozilla/5.0 (Windows NT 10.0; Win64; x64) AppleWebKit/537.36 (KHTML, like Gecko) Chrome/112.0.0.0 Safari/537.36" etag="SWIY8T9PjoGeE6s1QMNi" version="21.1.8" type="github">
  <diagram name="Page-1" id="7Jga0d-szdHKj6bJcx9B">
    <mxGraphModel dx="1434" dy="756" grid="1" gridSize="10" guides="1" tooltips="1" connect="1" arrows="1" fold="1" page="1" pageScale="1" pageWidth="1169" pageHeight="1654" math="0" shadow="0">
      <root>
        <mxCell id="0" />
        <mxCell id="1" parent="0" />
        <mxCell id="FPBq3adGTzS3eKzxV1aU-1" value="&lt;pre style=&quot;font-size: 16px;&quot;&gt;&lt;font style=&quot;font-size: 16px;&quot; face=&quot;Garamond&quot;&gt;id&lt;br&gt;username&lt;br&gt;password&lt;br&gt;email&lt;br&gt;created_at&lt;/font&gt;&lt;/pre&gt;" style="rounded=0;whiteSpace=wrap;html=1;fillColor=#e1d5e7;strokeColor=#9673a6;gradientColor=none;align=left;spacingTop=0;spacingLeft=10;" parent="1" vertex="1">
          <mxGeometry x="40" y="80" width="160" height="130" as="geometry" />
        </mxCell>
        <mxCell id="FPBq3adGTzS3eKzxV1aU-4" value="&lt;h2&gt;User&lt;/h2&gt;" style="rounded=0;whiteSpace=wrap;html=1;fillColor=#e1d5e7;strokeColor=#9673a6;" parent="1" vertex="1">
          <mxGeometry x="40" y="40" width="160" height="40" as="geometry" />
        </mxCell>
        <mxCell id="FPBq3adGTzS3eKzxV1aU-5" value="&lt;pre style=&quot;font-size: 20px;&quot;&gt;Create&lt;/pre&gt;" style="ellipse;whiteSpace=wrap;html=1;" parent="1" vertex="1">
          <mxGeometry x="330" y="100" width="120" height="80" as="geometry" />
        </mxCell>
        <mxCell id="FPBq3adGTzS3eKzxV1aU-6" value="&lt;b style=&quot;font-size: 14px;&quot;&gt;0, n&lt;/b&gt;" style="text;html=1;align=center;verticalAlign=middle;resizable=0;points=[];autosize=1;strokeColor=none;fillColor=none;fontFamily=Garamond;fontSize=14;" parent="1" vertex="1">
          <mxGeometry x="240" y="125" width="50" height="30" as="geometry" />
        </mxCell>
        <mxCell id="FPBq3adGTzS3eKzxV1aU-7" value="" style="endArrow=none;html=1;rounded=0;exitX=1.003;exitY=0.532;exitDx=0;exitDy=0;exitPerimeter=0;entryX=0.02;entryY=0.63;entryDx=0;entryDy=0;entryPerimeter=0;" parent="1" source="FPBq3adGTzS3eKzxV1aU-1" target="FPBq3adGTzS3eKzxV1aU-5" edge="1">
          <mxGeometry width="50" height="50" relative="1" as="geometry">
            <mxPoint x="200" y="144.5" as="sourcePoint" />
            <mxPoint x="330" y="150" as="targetPoint" />
          </mxGeometry>
        </mxCell>
        <mxCell id="FPBq3adGTzS3eKzxV1aU-10" value="&lt;h2&gt;Recipe&lt;/h2&gt;" style="rounded=0;whiteSpace=wrap;html=1;fillColor=#dae8fc;strokeColor=#6c8ebf;" parent="1" vertex="1">
          <mxGeometry x="560" y="40" width="160" height="40" as="geometry" />
        </mxCell>
        <mxCell id="FPBq3adGTzS3eKzxV1aU-11" value="&lt;pre style=&quot;font-size: 16px; line-height: 50%;&quot;&gt;&lt;font style=&quot;font-size: 16px;&quot; face=&quot;Garamond&quot;&gt;id&lt;/font&gt;&lt;/pre&gt;&lt;pre style=&quot;font-size: 16px; line-height: 50%;&quot;&gt;&lt;font style=&quot;font-size: 16px;&quot; face=&quot;Garamond&quot;&gt;name&lt;/font&gt;&lt;/pre&gt;&lt;pre style=&quot;font-size: 16px; line-height: 50%;&quot;&gt;&lt;font style=&quot;font-size: 16px;&quot; face=&quot;Garamond&quot;&gt;img&lt;/font&gt;&lt;/pre&gt;&lt;pre style=&quot;font-size: 16px; line-height: 50%;&quot;&gt;&lt;font style=&quot;font-size: 16px;&quot; face=&quot;Garamond&quot;&gt;author&lt;/font&gt;&lt;/pre&gt;&lt;pre style=&quot;font-size: 16px; line-height: 50%;&quot;&gt;&lt;font style=&quot;font-size: 16px;&quot; face=&quot;Garamond&quot;&gt;created_at&lt;/font&gt;&lt;/pre&gt;" style="rounded=0;whiteSpace=wrap;html=1;align=left;fillColor=#dae8fc;strokeColor=#6c8ebf;spacingLeft=10;" parent="1" vertex="1">
          <mxGeometry x="560" y="80" width="160" height="170" as="geometry" />
        </mxCell>
        <mxCell id="FPBq3adGTzS3eKzxV1aU-12" value="" style="endArrow=none;html=1;rounded=0;" parent="1" edge="1">
          <mxGeometry width="50" height="50" relative="1" as="geometry">
            <mxPoint x="450" y="150" as="sourcePoint" />
            <mxPoint x="560" y="150" as="targetPoint" />
          </mxGeometry>
        </mxCell>
        <mxCell id="FPBq3adGTzS3eKzxV1aU-13" value="&lt;b&gt;&lt;font face=&quot;Garamond&quot;&gt;1,1&lt;/font&gt;&lt;/b&gt;" style="text;html=1;align=center;verticalAlign=middle;resizable=0;points=[];autosize=1;strokeColor=none;fillColor=none;" parent="1" vertex="1">
          <mxGeometry x="480" y="125" width="40" height="30" as="geometry" />
        </mxCell>
        <mxCell id="FPBq3adGTzS3eKzxV1aU-14" value="&lt;h2&gt;&lt;font face=&quot;Garamond&quot;&gt;Ingredients&lt;/font&gt;&lt;/h2&gt;" style="rounded=0;whiteSpace=wrap;html=1;fillColor=#ffe6cc;strokeColor=#d79b00;" parent="1" vertex="1">
          <mxGeometry x="1000" y="40" width="120" height="40" as="geometry" />
        </mxCell>
        <mxCell id="FPBq3adGTzS3eKzxV1aU-15" value="&lt;pre style=&quot;font-size: 16px;&quot;&gt;&lt;font style=&quot;font-size: 16px;&quot; face=&quot;Garamond&quot;&gt;id&lt;br&gt;name&lt;/font&gt;&lt;/pre&gt;" style="rounded=0;whiteSpace=wrap;html=1;fillColor=#ffe6cc;strokeColor=#d79b00;align=left;spacingLeft=10;" parent="1" vertex="1">
          <mxGeometry x="1000" y="80" width="120" height="70" as="geometry" />
        </mxCell>
        <mxCell id="FPBq3adGTzS3eKzxV1aU-16" value="&lt;pre&gt;Include&lt;/pre&gt;&lt;pre&gt;Quantity&lt;br&gt;Unit (kg,g)&lt;/pre&gt;" style="ellipse;whiteSpace=wrap;html=1;" parent="1" vertex="1">
          <mxGeometry x="810" y="75" width="120" height="80" as="geometry" />
        </mxCell>
        <mxCell id="FPBq3adGTzS3eKzxV1aU-17" value="" style="endArrow=none;html=1;rounded=0;entryX=0.007;entryY=0.563;entryDx=0;entryDy=0;entryPerimeter=0;" parent="1" target="FPBq3adGTzS3eKzxV1aU-16" edge="1">
          <mxGeometry width="50" height="50" relative="1" as="geometry">
            <mxPoint x="720" y="120" as="sourcePoint" />
            <mxPoint x="770" y="70" as="targetPoint" />
          </mxGeometry>
        </mxCell>
        <mxCell id="FPBq3adGTzS3eKzxV1aU-18" value="" style="endArrow=none;html=1;rounded=0;entryX=-0.006;entryY=0.575;entryDx=0;entryDy=0;entryPerimeter=0;" parent="1" target="FPBq3adGTzS3eKzxV1aU-15" edge="1">
          <mxGeometry width="50" height="50" relative="1" as="geometry">
            <mxPoint x="930" y="120" as="sourcePoint" />
            <mxPoint x="980" y="70" as="targetPoint" />
          </mxGeometry>
        </mxCell>
        <mxCell id="FPBq3adGTzS3eKzxV1aU-19" value="&lt;pre&gt;&lt;font face=&quot;Garamond&quot;&gt;&lt;b&gt;1,n&lt;/b&gt;&lt;/font&gt;&lt;/pre&gt;" style="text;html=1;align=center;verticalAlign=middle;resizable=0;points=[];autosize=1;strokeColor=none;fillColor=none;" parent="1" vertex="1">
          <mxGeometry x="745" y="85" width="40" height="50" as="geometry" />
        </mxCell>
        <mxCell id="FPBq3adGTzS3eKzxV1aU-20" value="&lt;pre&gt;&lt;font face=&quot;Garamond&quot;&gt;&lt;b&gt;0,n&lt;/b&gt;&lt;/font&gt;&lt;/pre&gt;" style="text;html=1;align=center;verticalAlign=middle;resizable=0;points=[];autosize=1;strokeColor=none;fillColor=none;" parent="1" vertex="1">
          <mxGeometry x="940" y="85" width="40" height="50" as="geometry" />
        </mxCell>
        <mxCell id="FPBq3adGTzS3eKzxV1aU-21" value="" style="endArrow=none;html=1;rounded=0;entryX=0.996;entryY=0.441;entryDx=0;entryDy=0;entryPerimeter=0;" parent="1" target="FPBq3adGTzS3eKzxV1aU-16" edge="1">
          <mxGeometry width="50" height="50" relative="1" as="geometry">
            <mxPoint x="810" y="110" as="sourcePoint" />
            <mxPoint x="860" y="60" as="targetPoint" />
          </mxGeometry>
        </mxCell>
        <mxCell id="FPBq3adGTzS3eKzxV1aU-23" value="&lt;h2&gt;Category&lt;/h2&gt;" style="rounded=0;whiteSpace=wrap;html=1;fillColor=#f8cecc;strokeColor=#b85450;" parent="1" vertex="1">
          <mxGeometry x="1000" y="200" width="120" height="40" as="geometry" />
        </mxCell>
        <mxCell id="FPBq3adGTzS3eKzxV1aU-24" value="&lt;pre style=&quot;font-size: 16px;&quot;&gt;&lt;font face=&quot;Garamond&quot;&gt;id&lt;br&gt;name&lt;/font&gt;&lt;/pre&gt;" style="rounded=0;whiteSpace=wrap;html=1;fillColor=#f8cecc;strokeColor=#b85450;align=left;spacingLeft=10;" parent="1" vertex="1">
          <mxGeometry x="1000" y="240" width="120" height="60" as="geometry" />
        </mxCell>
        <mxCell id="FPBq3adGTzS3eKzxV1aU-25" value="&lt;pre&gt;Belong&lt;/pre&gt;" style="ellipse;whiteSpace=wrap;html=1;" parent="1" vertex="1">
          <mxGeometry x="810" y="200" width="120" height="80" as="geometry" />
        </mxCell>
        <mxCell id="FPBq3adGTzS3eKzxV1aU-26" value="" style="endArrow=none;html=1;rounded=0;entryX=0;entryY=0.5;entryDx=0;entryDy=0;" parent="1" target="FPBq3adGTzS3eKzxV1aU-25" edge="1">
          <mxGeometry width="50" height="50" relative="1" as="geometry">
            <mxPoint x="720" y="240" as="sourcePoint" />
            <mxPoint x="770" y="190" as="targetPoint" />
            <Array as="points">
              <mxPoint x="730" y="240" />
            </Array>
          </mxGeometry>
        </mxCell>
        <mxCell id="FPBq3adGTzS3eKzxV1aU-27" value="" style="endArrow=none;html=1;rounded=0;entryX=0;entryY=0;entryDx=0;entryDy=0;" parent="1" target="FPBq3adGTzS3eKzxV1aU-24" edge="1">
          <mxGeometry width="50" height="50" relative="1" as="geometry">
            <mxPoint x="930" y="240" as="sourcePoint" />
            <mxPoint x="980" y="190" as="targetPoint" />
          </mxGeometry>
        </mxCell>
        <mxCell id="FPBq3adGTzS3eKzxV1aU-28" value="&lt;pre&gt;&lt;b&gt;&lt;font face=&quot;Garamond&quot;&gt;0,n&lt;/font&gt;&lt;/b&gt;&lt;/pre&gt;" style="text;html=1;align=center;verticalAlign=middle;resizable=0;points=[];autosize=1;strokeColor=none;fillColor=none;" parent="1" vertex="1">
          <mxGeometry x="745" y="210" width="40" height="50" as="geometry" />
        </mxCell>
        <mxCell id="FPBq3adGTzS3eKzxV1aU-29" value="&lt;pre&gt;&lt;font face=&quot;Garamond&quot;&gt;&lt;b&gt;0,n&lt;/b&gt;&lt;/font&gt;&lt;/pre&gt;" style="text;html=1;align=center;verticalAlign=middle;resizable=0;points=[];autosize=1;strokeColor=none;fillColor=none;" parent="1" vertex="1">
          <mxGeometry x="940" y="208" width="40" height="50" as="geometry" />
        </mxCell>
        <mxCell id="FPBq3adGTzS3eKzxV1aU-30" value="&lt;h2&gt;&lt;font style=&quot;font-size: 20px;&quot; face=&quot;Garamond&quot;&gt;User&lt;/font&gt;&lt;/h2&gt;" style="rounded=0;whiteSpace=wrap;html=1;fillColor=#dae8fc;strokeColor=#6c8ebf;" parent="1" vertex="1">
          <mxGeometry x="40" y="520" width="160" height="40" as="geometry" />
        </mxCell>
        <mxCell id="FPBq3adGTzS3eKzxV1aU-31" value="&lt;pre style=&quot;font-size: 16px; line-height: 150%;&quot;&gt;&lt;font style=&quot;font-size: 16px;&quot; face=&quot;Garamond&quot;&gt;id (int)&lt;br&gt;username (varchar150)&lt;br&gt;password (varchar150)&lt;br&gt;email (varchar150)&lt;br&gt;created_at (date)&lt;/font&gt;&lt;/pre&gt;" style="rounded=0;whiteSpace=wrap;html=1;fillColor=#dae8fc;strokeColor=#6c8ebf;align=left;spacingLeft=10;" parent="1" vertex="1">
          <mxGeometry x="40" y="560" width="160" height="160" as="geometry" />
        </mxCell>
        <mxCell id="FPBq3adGTzS3eKzxV1aU-32" value="&lt;h2&gt;&lt;font style=&quot;font-size: 20px;&quot; face=&quot;Garamond&quot;&gt;Recipe&lt;/font&gt;&lt;/h2&gt;" style="rounded=0;whiteSpace=wrap;html=1;fillColor=#dae8fc;strokeColor=#6c8ebf;" parent="1" vertex="1">
          <mxGeometry x="360" y="520" width="160" height="40" as="geometry" />
        </mxCell>
        <mxCell id="FPBq3adGTzS3eKzxV1aU-33" value="&lt;pre style=&quot;font-size: 16px; line-height: 170%;&quot;&gt;&lt;font style=&quot;font-size: 16px;&quot; face=&quot;Garamond&quot;&gt;id (int)&lt;br&gt;FK id_user (int)&lt;br&gt;name (varchar 150)&lt;br&gt;img (varchar150)&lt;br&gt;created_at (date)&lt;/font&gt;&lt;/pre&gt;" style="rounded=0;whiteSpace=wrap;html=1;spacingLeft=10;align=left;fillColor=#dae8fc;strokeColor=#6c8ebf;" parent="1" vertex="1">
          <mxGeometry x="360" y="560" width="160" height="180" as="geometry" />
        </mxCell>
        <mxCell id="FPBq3adGTzS3eKzxV1aU-34" value="" style="endArrow=classic;html=1;rounded=0;exitX=-0.006;exitY=0.335;exitDx=0;exitDy=0;exitPerimeter=0;entryX=1.004;entryY=0.188;entryDx=0;entryDy=0;entryPerimeter=0;" parent="1" source="FPBq3adGTzS3eKzxV1aU-33" target="FPBq3adGTzS3eKzxV1aU-31" edge="1">
          <mxGeometry width="50" height="50" relative="1" as="geometry">
            <mxPoint x="550" y="470" as="sourcePoint" />
            <mxPoint x="280" y="600" as="targetPoint" />
            <Array as="points">
              <mxPoint x="280" y="620" />
              <mxPoint x="280" y="590" />
            </Array>
          </mxGeometry>
        </mxCell>
        <mxCell id="FPBq3adGTzS3eKzxV1aU-35" value="&lt;h2&gt;&lt;font style=&quot;font-size: 16px;&quot; face=&quot;Garamond&quot;&gt;Recipe_Ingredient&lt;/font&gt;&lt;/h2&gt;" style="rounded=0;whiteSpace=wrap;html=1;fillColor=#dae8fc;strokeColor=#6c8ebf;" parent="1" vertex="1">
          <mxGeometry x="680" y="520" width="160" height="40" as="geometry" />
        </mxCell>
        <mxCell id="FPBq3adGTzS3eKzxV1aU-36" value="&lt;pre style=&quot;font-size: 16px; line-height: 150%;&quot;&gt;&lt;font style=&quot;font-size: 16px;&quot; face=&quot;Garamond&quot;&gt;FK id_recipe (int)&lt;br&gt;FK id_ingredient (int)&lt;br&gt;Quantity (int)&lt;br&gt;Unit (varchar 15)&lt;/font&gt;&lt;/pre&gt;" style="rounded=0;whiteSpace=wrap;html=1;fillColor=#dae8fc;strokeColor=#6c8ebf;align=left;spacingLeft=10;" parent="1" vertex="1">
          <mxGeometry x="680" y="560" width="160" height="100" as="geometry" />
        </mxCell>
        <mxCell id="FPBq3adGTzS3eKzxV1aU-37" value="&lt;h2&gt;&lt;font face=&quot;Times New Roman&quot;&gt;Recipe_category&lt;/font&gt;&lt;/h2&gt;" style="rounded=0;whiteSpace=wrap;html=1;fillColor=#dae8fc;strokeColor=#6c8ebf;" parent="1" vertex="1">
          <mxGeometry x="680" y="720" width="160" height="40" as="geometry" />
        </mxCell>
        <mxCell id="FPBq3adGTzS3eKzxV1aU-38" value="&lt;pre style=&quot;font-size: 16px; line-height: 150%;&quot;&gt;&lt;font style=&quot;font-size: 16px;&quot; face=&quot;Garamond&quot;&gt;FK id_recipe (int)&lt;br&gt;FK id_category (int)&lt;/font&gt;&lt;/pre&gt;" style="rounded=0;whiteSpace=wrap;html=1;fillColor=#dae8fc;strokeColor=#6c8ebf;spacingLeft=10;align=left;" parent="1" vertex="1">
          <mxGeometry x="680" y="760" width="160" height="80" as="geometry" />
        </mxCell>
        <mxCell id="FPBq3adGTzS3eKzxV1aU-39" value="&lt;h2&gt;&lt;font face=&quot;Garamond&quot;&gt;Ingredient&lt;/font&gt;&lt;/h2&gt;" style="rounded=0;whiteSpace=wrap;html=1;fillColor=#dae8fc;strokeColor=#6c8ebf;" parent="1" vertex="1">
          <mxGeometry x="960" y="520" width="140" height="40" as="geometry" />
        </mxCell>
        <mxCell id="FPBq3adGTzS3eKzxV1aU-40" value="&lt;pre style=&quot;font-size: 16px; line-height: 150%;&quot;&gt;&lt;font style=&quot;font-size: 16px;&quot; face=&quot;Garamond&quot;&gt;id (int)&lt;br&gt;name (varchar 100)&lt;br&gt;slug (varchar 100)&lt;/font&gt;&lt;/pre&gt;" style="rounded=0;whiteSpace=wrap;html=1;fillColor=#dae8fc;strokeColor=#6c8ebf;spacingLeft=10;align=left;" parent="1" vertex="1">
          <mxGeometry x="960" y="560" width="140" height="70" as="geometry" />
        </mxCell>
        <mxCell id="FPBq3adGTzS3eKzxV1aU-41" value="&lt;h2&gt;&lt;font face=&quot;Garamond&quot;&gt;Category&lt;/font&gt;&lt;/h2&gt;" style="rounded=0;whiteSpace=wrap;html=1;fillColor=#dae8fc;strokeColor=#6c8ebf;" parent="1" vertex="1">
          <mxGeometry x="960" y="720" width="140" height="40" as="geometry" />
        </mxCell>
        <mxCell id="FPBq3adGTzS3eKzxV1aU-42" value="&lt;p style=&quot;line-height: 150%;&quot;&gt;&lt;/p&gt;&lt;pre style=&quot;line-height: 150%; font-size: 16px;&quot;&gt;&lt;font style=&quot;font-size: 16px;&quot; face=&quot;Garamond&quot;&gt;&lt;span style=&quot;background-color: initial;&quot;&gt;id (int)&lt;br&gt;&lt;/span&gt;&lt;span style=&quot;background-color: initial;&quot;&gt;name (varchar 50)&lt;br&gt;&lt;/span&gt;&lt;span style=&quot;background-color: initial;&quot;&gt;slug (varchar 50)&lt;/span&gt;&lt;/font&gt;&lt;/pre&gt;&lt;p&gt;&lt;/p&gt;" style="rounded=0;whiteSpace=wrap;html=1;fillColor=#dae8fc;strokeColor=#6c8ebf;spacingLeft=10;align=left;" parent="1" vertex="1">
          <mxGeometry x="960" y="760" width="140" height="80" as="geometry" />
        </mxCell>
        <mxCell id="FPBq3adGTzS3eKzxV1aU-43" value="" style="endArrow=classic;html=1;rounded=0;entryX=0.011;entryY=0.172;entryDx=0;entryDy=0;entryPerimeter=0;" parent="1" target="FPBq3adGTzS3eKzxV1aU-42" edge="1">
          <mxGeometry width="50" height="50" relative="1" as="geometry">
            <mxPoint x="840" y="800" as="sourcePoint" />
            <mxPoint x="890" y="750" as="targetPoint" />
            <Array as="points">
              <mxPoint x="900" y="800" />
              <mxPoint x="900" y="770" />
            </Array>
          </mxGeometry>
        </mxCell>
        <mxCell id="FPBq3adGTzS3eKzxV1aU-44" value="" style="endArrow=classic;html=1;rounded=0;" parent="1" edge="1">
          <mxGeometry width="50" height="50" relative="1" as="geometry">
            <mxPoint x="680" y="780" as="sourcePoint" />
            <mxPoint x="520" y="590" as="targetPoint" />
            <Array as="points">
              <mxPoint x="600" y="780" />
              <mxPoint x="600" y="590" />
            </Array>
          </mxGeometry>
        </mxCell>
        <mxCell id="FPBq3adGTzS3eKzxV1aU-45" value="" style="endArrow=classic;html=1;rounded=0;exitX=0.003;exitY=0.179;exitDx=0;exitDy=0;exitPerimeter=0;" parent="1" source="FPBq3adGTzS3eKzxV1aU-36" edge="1">
          <mxGeometry width="50" height="50" relative="1" as="geometry">
            <mxPoint x="680" y="580" as="sourcePoint" />
            <mxPoint x="520" y="590" as="targetPoint" />
            <Array as="points">
              <mxPoint x="640" y="580" />
              <mxPoint x="600" y="590" />
            </Array>
          </mxGeometry>
        </mxCell>
        <mxCell id="FPBq3adGTzS3eKzxV1aU-46" value="" style="endArrow=classic;html=1;rounded=0;entryX=-0.001;entryY=0.162;entryDx=0;entryDy=0;entryPerimeter=0;" parent="1" target="FPBq3adGTzS3eKzxV1aU-40" edge="1">
          <mxGeometry width="50" height="50" relative="1" as="geometry">
            <mxPoint x="840" y="590" as="sourcePoint" />
            <mxPoint x="890" y="540" as="targetPoint" />
            <Array as="points">
              <mxPoint x="880" y="590" />
              <mxPoint x="920" y="570" />
            </Array>
          </mxGeometry>
        </mxCell>
      </root>
    </mxGraphModel>
  </diagram>
</mxfile>
